# xmcd CD database file
#
# Track frame offsets:
#	182
#	18752
#	38645
#	56860
#	78035
#	96445
#	123522
#	145487
#	170030
#
# Disc length: 2547 seconds
#
# Revision: 0
# Processed by: cddbd v1.5.2PL0 Copyright (c) Steve Scherf et al.
# Submitted via: CDex 1.51
#
DISCID=7509f109
DTITLE=Sharon Evans Group - Icarus
DYEAR=1994
DGENRE=Jazz
TTITLE0=Icarus
TTITLE1=The Rider
TTITLE2=Troubadour
TTITLE3=Winter's Tale
TTITLE4=Gipsy
TTITLE5=Refugee
TTITLE6=God Is Lost
TTITLE7=Testament To Faith
TTITLE8=Wisdom Is A Jealous God
EXTD=YEAR: 1994
EXTT0=
EXTT1=
EXTT2=
EXTT3=
EXTT4=
EXTT5=
EXTT6=
EXTT7=
EXTT8=
PLAYORDER=
